<?xml version="1.0" encoding="UTF-8" standalone="no"?>
<!-- Created with Inkscape (http://www.inkscape.org/) -->

<svg
   version="1.1"
   id="svg198"
   width="350"
   height="350"
   viewBox="0 0 350 350"
   sodipodi:docname="logo.svg"
   inkscape:version="1.2 (dc2aedaf03, 2022-05-15)"
   xmlns:inkscape="http://www.inkscape.org/namespaces/inkscape"
   xmlns:sodipodi="http://sodipodi.sourceforge.net/DTD/sodipodi-0.dtd"
   xmlns="http://www.w3.org/2000/svg"
   xmlns:svg="http://www.w3.org/2000/svg"
   xmlns:rdf="http://www.w3.org/1999/02/22-rdf-syntax-ns#"
   xmlns:cc="http://creativecommons.org/ns#"
   xmlns:dc="http://purl.org/dc/elements/1.1/">
  <title
     id="title228">FlySql</title>
  <defs
     id="defs202" />
  <sodipodi:namedview
     id="namedview200"
     pagecolor="#ffffff"
     bordercolor="#000000"
     borderopacity="0.25"
     inkscape:showpageshadow="2"
     inkscape:pageopacity="0.0"
     inkscape:pagecheckerboard="0"
     inkscape:deskcolor="#d1d1d1"
     showgrid="false"
     inkscape:zoom="4.7420635"
     inkscape:cx="59.256904"
     inkscape:cy="187.36569"
     inkscape:window-width="3176"
     inkscape:window-height="1871"
     inkscape:window-x="3420"
     inkscape:window-y="129"
     inkscape:window-maximized="0"
     inkscape:current-layer="g204" />
  <g
     inkscape:groupmode="layer"
     inkscape:label="Image"
     id="g204">
    <g
       id="g208"
       transform="matrix(1.9856287,0,0,1.7746638,-73.6959,-53.679492)">
      <path
         style="display:inline;fill:#fdfcfc;stroke-width:0.7222"
         d="M 37.114639,124.4184 V 30.366524 h 88.041841 88.04184 V 124.4184 218.47028 H 125.15648 37.114639 Z m 103.845701,90.38405 2.87708,-1.39572 1.1407,-1.73975 1.1407,-1.73975 v -2.87711 -2.8771 l -1.96588,-2.10008 -1.96589,-2.10009 -4.14813,-0.84466 -4.14813,-0.84466 -2.62029,-0.76002 -2.6203,-0.76001 v -0.56719 -0.5672 l 0.8385,-0.89573 0.83849,-0.89573 h 2.66207 2.66206 l 1.19658,1.49289 1.19656,1.49288 h 3.68781 3.68781 v -1.93985 -1.93985 l -2.09528,-2.09089 -2.09528,-2.09089 -3.5718,-0.91536 -3.57181,-0.91535 -3.41621,0.43222 -3.41621,0.43222 -2.47678,1.25553 -2.47677,1.25554 -1.01734,2.10161 -1.01733,2.10161 v 1.56702 1.56702 l 1.02127,2.10974 1.02127,2.10974 2.78167,1.18898 2.78166,1.18898 4.23791,0.72909 4.2379,0.72908 0.69347,0.45784 0.69346,0.45784 v 0.99576 0.99574 l -1.10526,0.45309 -1.10526,0.45308 h -2.96541 -2.9654 l -1.64109,-1.86611 -1.64109,-1.86611 h -2.26666 -2.26666 l -1.10526,0.45309 -1.10527,0.45308 v 1.74463 1.74461 l 1.57218,1.93831 1.57217,1.9383 2.79498,1.05633 2.79498,1.05633 4.89121,0.0163 4.89122,0.0163 2.87708,-1.39572 z m 39.9741,-0.31003 0.24537,-1.36532 -0.42456,-1.80707 -0.42456,-1.80707 h -1.6979 -1.69789 l 1.09272,-2.79375 1.09271,-2.79376 -0.38044,-3.93773 -0.38045,-3.93772 -1.41214,-2.44089 -1.41215,-2.44088 -3.00419,-1.82763 -3.00419,-1.82763 -4.89121,-0.0101 -4.89122,-0.0101 -1.86769,0.55962 -1.8677,0.55961 -2.17518,1.95524 -2.17518,1.95524 -1.15119,2.33703 -1.15119,2.33702 -0.0157,4.88834 -0.0156,4.88834 1.55365,2.68548 1.55365,2.68547 1.84885,1.29411 1.84885,1.29411 1.80726,0.5946 1.80725,0.59461 10.47236,-0.13198 10.47236,-0.13199 0.24538,-1.36531 z m -20.66521,-5.38001 -1.53292,-1.14699 -0.74572,-2.95845 -0.74572,-2.95844 0.74572,-2.95845 0.74572,-2.95845 1.53292,-1.14699 1.53293,-1.14699 h 2.25116 2.25117 l 1.96052,1.80148 1.96051,1.80147 v 4.60793 4.60792 l -1.96051,1.80147 -1.96052,1.80149 h -2.25117 -2.25116 z m -111.136114,2.08005 0.209556,-4.29205 6.281652,-0.37322 6.281652,-0.37322 0.243615,-1.36532 0.243616,-1.36532 -0.424563,-1.80706 -0.424563,-1.80707 h -6.321803 -6.321803 l 0.221099,-2.05272 0.221098,-2.05272 7.686193,-0.37322 7.686192,-0.37323 v -2.98577 -2.98577 H 53.185769 41.65648 l -0.190809,13.24937 -0.19081,13.24937 h 3.82435 3.824349 z m 42.349105,1.11967 -0.214863,-3.17239 -7.142021,-0.21249 -7.142022,-0.21248 -0.194798,-9.86451 -0.194799,-9.86449 h -3.843096 -3.843096 l -0.192704,12.28766 -0.192704,12.28766 0.34546,0.96171 0.34546,0.96171 h 11.242023 11.242022 z m 16.904379,-1.75891 0.34938,-4.55806 4.71652,-7.56544 4.71653,-7.56545 v -1.16311 -1.16312 l -3.96816,0.22387 -3.96817,0.22386 -2.84459,5.0148 -2.8446,5.01481 -0.51109,-0.16293 -0.51109,-0.16292 -2.98264,-4.85188 -2.982629,-4.85188 -4.017782,-0.22386 -4.017783,-0.22387 v 0.77657 0.77658 l 5.240586,8.62265 5.240588,8.62266 v 4.11125 4.11126 l 4.01778,-0.22386 4.01778,-0.22386 z m 99.10007,3.19276 0.24545,-1.36532 -0.42457,-1.80707 -0.42456,-1.80707 h -7.30323 -7.30322 l -0.19497,-9.89038 -0.19497,-9.89037 -3.66841,-0.22562 -3.66841,-0.22562 v 13.49348 13.49348 l 11.34572,-0.2051 11.34572,-0.2051 z m -134.081911,-75.21087 3.798488,-2.54683 7.659911,-7.91218 7.65991,-7.91216 5.020664,3.84806 5.020668,3.84805 3.54772,1.63037 3.54772,1.63037 4.05203,1.12747 4.05203,1.12747 h 6.91446 6.91447 l 4.29334,-1.1694 4.29332,-1.1694 5.23031,-2.73854 5.23031,-2.73854 5.25086,-5.63093 5.25086,-5.63093 21.03029,-22.744812 21.03029,-22.744814 1.67892,-3.732218 1.67891,-3.732217 v -6.34477 -6.344769 l -1.96413,-4.272827 -1.96414,-4.272827 -2.87427,-2.628218 -2.87427,-2.628218 -3.19716,-1.683056 -3.19716,-1.683055 -5.58995,0.01116 -5.58996,0.01116 -3.33523,1.634014 -3.33523,1.634013 -7.55653,7.871979 -7.55653,7.871978 h -0.38677 -0.38675 l -3.39513,-3.020162 -3.39511,-3.020161 -4.89122,-2.566943 -4.89121,-2.566944 -4.19247,-1.18721 -4.19247,-1.187209 -6.67026,-0.0036 -6.67026,-0.0036 -4.50966,1.240033 -4.50965,1.240033 -4.19247,2.135155 -4.19247,2.135154 -4.36715,3.475974 -4.367155,3.475975 v 0.70825 0.708251 L 68.304389,78.003535 44.293303,103.9235 l -1.495524,3.13158 -1.495523,3.13158 -0.771436,3.84263 -0.771436,3.84263 0.835429,4.57952 0.835429,4.57951 1.445656,2.61255 1.445655,2.61256 2.161188,2.51668 2.161187,2.51668 4.192468,2.19246 4.192469,2.19247 6.288703,-0.2962 6.288702,-0.29621 3.798489,-2.54684 z"
         id="path224" />
      <path
         style="display:inline;fill:#48c8eb;stroke-width:0.7222"
         d="m 117.33927,132.86582 0.9171,-0.39204 0.42217,0.45097 0.42215,0.45098 -1.33926,-0.0589 -1.33926,-0.0589 0.9171,-0.39205 z m 13.9749,0 0.9171,-0.39204 0.42216,0.45097 0.42215,0.45098 -1.33925,-0.0589 -1.33927,-0.0589 0.91711,-0.39205 z m -17.80344,-0.73417 0.46583,-0.49762 0.46583,0.49762 0.46583,0.49763 h -0.93166 -0.93165 z m 20.96234,0 0.46584,-0.49762 0.46583,0.49762 0.46582,0.49763 h -0.93165 -0.93166 z m -23.29149,-0.62203 v -0.37322 h 0.34938 0.34937 v 0.37322 0.37322 h -0.34937 -0.34938 z m 26.08647,-0.12441 0.46583,-0.49763 0.46584,0.49763 0.46582,0.49763 h -0.93166 -0.93165 z m -28.1827,-0.62204 v -0.37322 h 0.34937 0.34937 v 0.37322 0.37323 h -0.34937 -0.34937 z m 30.27894,-0.12441 0.46583,-0.49762 0.46583,0.49762 0.46583,0.49764 h -0.93166 -0.93166 z m -32.37517,-0.62203 v -0.37322 h 0.34937 0.34937 v 0.37322 0.37322 h -0.34937 -0.34937 z m 34.23849,0 v -0.37322 h 0.34937 0.34937 v 0.37322 0.37322 h -0.34937 -0.34937 z m -35.63598,-0.74644 v -0.37323 h 0.34937 0.34937 v 0.37323 0.37322 h -0.34937 -0.34937 z m 37.26638,-0.12441 0.46583,-0.49763 0.46583,0.49763 0.46583,0.49763 h -0.93166 -0.93165 z m -38.66387,-0.62204 v -0.37322 h 0.34937 0.34937 v 0.37322 0.37322 h -0.34937 -0.34937 z m 40.52719,0 v -0.37322 h 0.34937 0.34938 v 0.37322 0.37322 h -0.34938 -0.34937 z m -41.92468,-0.74644 v -0.37322 h 0.34937 0.34937 v 0.37322 0.37322 h -0.34937 -0.34937 z m 43.67154,-0.37322 0.43185,-0.74645 h 0.34937 0.34937 l -0.43184,0.74645 -0.43185,0.74644 h -0.34937 -0.34937 z m -45.06903,-0.37322 v -0.37323 h 0.34937 0.34937 v 0.37323 0.37322 h -0.34937 -0.34937 z m 46.8159,-0.74645 v -0.37322 h 0.34937 0.34937 v 0.37322 0.37322 h -0.34937 -0.34937 z m -48.912137,-0.74644 v -0.37322 h 0.349372 0.349375 v 0.37322 0.37322 h -0.349375 -0.349372 z m 50.309627,0.0914 v -0.28182 l 1.2228,-1.02445 1.2228,-1.02445 -0.95898,1.30627 -0.959,1.30628 h -0.26381 -0.26381 z m -53.193735,-2.51733 -0.958988,-1.30628 1.222803,1.02445 1.222803,1.02446 v 0.28182 0.28182 h -0.263814 -0.263816 z m 57.386195,-1.30628 1.6411,-1.86611 h 0.34937 0.34937 l -1.64109,1.86611 -1.64109,1.86611 h -0.34938 -0.34937 z m -60.181174,-0.93305 -0.958988,-1.30628 1.222803,1.02445 1.222803,1.02446 v 0.28182 0.28182 H 94.84664 94.582824 Z m 62.976154,-1.91307 v -0.23357 l 2.27092,-2.19237 2.27092,-2.19237 -2.05227,2.42594 -2.05228,2.42594 h -0.21864 -0.21865 z m 5.34481,-6.48442 1.48848,-1.86611 1.86966,-3.99041 1.86967,-3.99039 1.35177,-5.64616 1.35176,-5.646156 v -6.179048 -6.179047 l -1.07049,-4.930964 -1.07049,-4.930964 -1.67725,-4.051452 -1.67725,-4.051452 -2.07741,-3.19361 -2.07741,-3.19361 -1.5843,-1.786734 -1.58429,-1.786736 7.77213,-8.129166 7.77213,-8.129166 3.35385,-1.64281 3.35384,-1.64281 5.58996,-0.01116 5.58995,-0.01116 3.19716,1.683055 3.19716,1.683055 2.87427,2.628219 2.87427,2.628217 1.96414,4.272827 1.96413,4.272827 v 6.344769 6.34477 l -1.67811,3.732217 -1.6781,3.732218 -21.37385,22.766526 -21.37385,22.766525 z"
         id="path222" />
      <path
         style="display:inline;fill:#a474a4;stroke-width:0.7222"
         d="m 137.73388,215.85773 v -0.37322 h 0.34938 0.34937 v 0.37322 0.37322 h -0.34937 -0.34938 z m 21.66109,0 v -0.37322 h 0.34937 0.34938 v 0.37322 0.37322 h -0.34938 -0.34937 z m -34.23849,-0.74644 v -0.37322 h 0.34937 0.34937 v 0.37322 0.37322 h -0.34937 -0.34937 z m 31.44351,0 v -0.37322 h 0.34938 0.34937 v 0.37322 0.37322 h -0.34937 -0.34938 z m -48.71228,-3.73222 0.01,-3.73222 0.29202,2.06299 0.29202,2.06298 -0.30156,1.66923 -0.30155,1.66924 0.01,-3.73222 z m 47.31479,2.98577 v -0.37322 h 0.34938 0.34937 v 0.37322 0.37323 h -0.34937 -0.34938 z m 51.86922,-1.8661 v -2.61256 l 0.31956,1.30628 0.31955,1.30628 -0.31955,1.30627 -0.31956,1.30628 z m -84.71022,1.11966 v -0.37322 h 0.34937 0.34937 v 0.37322 0.37322 h -0.34937 -0.34937 z m 30.74477,-0.74644 v -0.37322 h 0.34937 0.34937 v 0.37322 0.37322 h -0.34937 -0.34937 z m -32.841,-1.49289 v -0.37322 h 0.34937 0.34937 v 0.37322 0.37322 h -0.34937 -0.34937 z m -0.69875,-1.49289 v -0.37322 h 0.34937 0.34938 v 0.37322 0.37323 h -0.34938 -0.34937 z m 12.40272,-0.12113 0.87343,-0.3765 0.87343,0.3765 0.87343,0.3765 h -1.74686 -1.74686 z m 34.41318,0.12113 v -0.37322 h 0.34937 0.34937 v 0.37322 0.37323 h -0.34937 -0.34937 z m 13.27615,0 v -0.37322 h 0.34937 0.34938 v 0.37322 0.37323 h -0.34938 -0.34937 z m -43.32217,-0.74644 v -0.37322 h 0.34937 0.34937 v 0.37322 0.37322 h -0.34937 -0.34937 z m 69.87447,0 v -0.37322 h 0.34937 0.34938 v 0.37322 0.37322 h -0.34938 -0.34937 z m -78.25941,-0.74644 v -0.37322 h 0.34937 0.34937 v 0.37322 0.37322 h -0.34937 -0.34937 z m 48.91213,0 v -0.37322 h 0.34937 0.34938 v 0.37322 0.37322 h -0.34938 -0.34937 z m -27.25104,-0.74645 v -0.37322 h 0.34937 0.34937 v 0.37322 0.37323 h -0.34937 -0.34937 z m -30.04603,-0.74644 v -0.37322 h 0.34937 0.34938 v 0.37322 0.37322 h -0.34938 -0.34937 z m 57.99582,0 v -0.37322 h 0.34937 0.34937 v 0.37322 0.37322 h -0.34937 -0.34937 z m -69.17574,-0.74644 v -0.37323 h 0.34938 0.34937 v 0.37323 0.37322 h -0.34937 -0.34938 z m 13.80021,-0.15357 1.57218,-0.32349 1.57218,0.32349 1.57217,0.32349 h -3.14435 -3.14435 z m -60.453993,-2.45899 v -2.61255 l 0.319552,1.30628 0.319551,1.30627 -0.319551,1.30628 -0.319552,1.30628 z m 68.314873,1.11967 v -0.37322 h 0.34937 0.34938 v 0.37322 0.37322 h -0.34938 -0.34937 z m -2.79498,-0.74644 v -0.37323 h 0.34938 0.34937 v 0.37323 0.37322 h -0.34937 -0.34938 z m 30.04603,0 v -0.37323 h 0.34937 0.34937 v 0.37323 0.37322 h -0.34937 -0.34937 z m -60.092051,-0.74645 v -0.37322 h 0.349372 0.349372 v 0.37322 0.37322 h -0.349372 -0.349372 z m 24.738711,-1.98144 -0.49857,-0.86178 0.80671,0.53261 0.8067,0.53261 v 0.32917 0.32917 h -0.30813 -0.30814 z m -26.136201,-0.25789 v -0.37322 h 0.349372 0.349373 v 0.37322 0.37322 h -0.349373 -0.349372 z m 46.815901,0 v -0.37322 h 0.34937 0.34937 v 0.37322 0.37322 h -0.34937 -0.34937 z m -81.753139,-0.74644 v -0.37322 h 0.349372 0.349373 v 0.37322 0.37322 h -0.349373 -0.349372 z m 80.355649,0 v -0.37322 h 0.34937 0.34937 v 0.37322 0.37322 h -0.34937 -0.34937 z m 7.68619,0 v -0.37322 h 0.34937 0.34938 v 0.37322 0.37322 h -0.34938 -0.34937 z m -9.78243,-0.74645 v -0.37322 h 0.34938 0.34937 v 0.37322 0.37323 h -0.34937 -0.34938 z m -44.719661,-0.74644 v -0.37322 h 0.349373 0.349372 v 0.37322 0.37322 h -0.349372 -0.349373 z m 25.853561,-0.74644 v -0.37322 h 0.34937 0.34937 v 0.37322 0.37322 h -0.34937 -0.34937 z m -18.16737,-0.74645 v -0.37322 h 0.34937 0.34938 v 0.37322 0.37323 h -0.34938 -0.34937 z m 27.25105,0 v -0.37322 h 0.34937 0.34937 v 0.37322 0.37323 h -0.34937 -0.34937 z m -23.75732,-0.74644 v -0.37322 h 0.34937 0.34937 v 0.37322 0.37322 h -0.34937 -0.34937 z m 44.02092,0 v -0.37322 h 0.34937 0.34937 v 0.37322 0.37322 h -0.34937 -0.34937 z M 48.9933,195.70376 v -0.37322 h 0.349372 0.349373 v 0.37322 0.37322 H 49.342672 48.9933 Z m 65.68201,0 v -0.37322 h 0.34937 0.34937 v 0.37322 0.37322 h -0.34937 -0.34937 z m 22.35983,0 v -0.37322 h 0.34937 0.34937 v 0.37322 0.37322 h -0.34937 -0.34937 z m 40.5272,0 v -0.37322 h 0.34937 0.34937 v 0.37322 0.37322 h -0.34937 -0.34937 z m -70.57322,-1.49289 v -0.37322 h 0.34937 0.34937 v 0.37322 0.37322 h -0.34937 -0.34937 z m 13.27615,0 v -0.37322 h 0.34937 0.34937 v 0.37322 0.37322 h -0.34937 -0.34937 z m 46.11715,0 v -0.37322 h 0.34937 0.34937 v 0.37322 0.37322 h -0.34937 -0.34937 z m 10.48117,0 v -0.37322 h 0.34937 0.34938 v 0.37322 0.37322 h -0.34938 -0.34937 z m -76.86192,-0.74644 v -0.37322 h 0.34937 0.34937 v 0.37322 0.37322 h -0.34937 -0.34937 z m 16.07113,0 v -0.37322 h 0.34937 0.34937 v 0.37322 0.37322 h -0.34937 -0.34937 z m 28.64853,0 v -0.37322 h 0.34937 0.34938 v 0.37322 0.37322 h -0.34938 -0.34937 z m 6.28871,0 v -0.37322 h 0.34937 0.34937 v 0.37322 0.37322 h -0.34937 -0.34937 z m -6.98745,-1.49289 v -0.37322 h 0.34937 0.34937 v 0.37322 0.37322 h -0.34937 -0.34937 z m 31.02742,-0.48855 -0.49858,-0.86178 0.80671,0.53261 0.80671,0.5326 v 0.32918 0.32916 h -0.30814 -0.30814 z m -57.57972,-0.25789 v -0.37323 h 0.34937 0.34937 v 0.37323 0.37322 h -0.34937 -0.34937 z m 4.54184,-0.37323 0.43184,-0.74644 h 0.34938 0.34937 l -0.43185,0.74644 -0.43184,0.74645 h -0.34938 -0.34937 z m -12.92678,-0.37322 v -0.37322 h 0.34937 0.34937 v 0.37322 0.37322 h -0.34937 -0.34937 z m -40.527197,-0.74644 v -0.37322 h 0.349373 0.349372 v 0.37322 0.37322 h -0.349372 -0.349373 z m 85.945607,0 v -0.37322 h 0.34937 0.34937 v 0.37322 0.37322 h -0.34937 -0.34937 z m -64.983264,-0.74644 v -0.37323 h 0.349373 0.349372 v 0.37323 0.37322 h -0.349372 -0.349373 z m 20.962344,0 v -0.37323 h 0.34937 0.34937 v 0.37323 0.37322 h -0.34937 -0.34937 z m 13.97489,0 v -0.37323 h 0.34938 0.34937 v 0.37323 0.37322 h -0.34937 -0.34938 z m 16.07113,0 v -0.37323 h 0.34938 0.34937 v 0.37323 0.37322 h -0.34937 -0.34938 z m 44.02092,0 v -0.37323 h 0.34938 0.34937 v 0.37323 0.37322 h -0.34937 -0.34938 z m -27.25104,-0.74645 v -0.37322 h 0.34937 0.34937 v 0.37322 0.37322 h -0.34937 -0.34937 z m 12.5774,0 v -0.37322 h 0.34938 0.34937 v 0.37322 0.37322 h -0.34937 -0.34938 z m -40.52719,-0.74644 v -0.37322 h 0.34937 0.34937 v 0.37322 0.37322 h -0.34937 -0.34937 z m 37.73221,0 v -0.37322 h 0.34938 0.34937 v 0.37322 0.37322 h -0.34937 -0.34938 z M 77.641835,135.24183 v -0.37322 h 0.349373 0.349372 v 0.37322 0.37323 h -0.349372 -0.349373 z m 46.671745,-49.857692 32.34185,-34.555605 -0.55178,-0.646913 -0.55177,-0.646913 0.95417,0.590258 0.95417,0.590257 -32.39486,34.61226 -32.394877,34.612258 H 92.321111 91.971738 Z M 88.472379,55.745603 88.904227,54.999159 h 0.349372 0.349373 l -0.431848,0.746444 -0.431848,0.746443 h -0.349373 -0.349372 z m 3.843096,-4.760485 v -0.281824 l 1.222804,-1.024452 1.222803,-1.024452 -0.958989,1.306276 -0.958988,1.306276 H 92.57929 92.315475 Z m 4.192469,-3.823615 v -0.373222 h 0.349372 0.349373 v 0.373222 0.373221 h -0.349373 -0.349372 z m 55.200836,-0.746444 v -0.373222 h 0.34937 0.34937 v 0.373222 0.373222 h -0.34937 -0.34937 z M 99.302923,44.922172 V 44.54895 h 0.349372 0.349375 v 0.373222 0.373222 h -0.349375 -0.349372 z m 48.213387,-1.492887 v -0.373222 h 0.34937 0.34938 v 0.373222 0.373222 h -0.34938 -0.34937 z M 102.79665,42.682842 V 42.30962 h 0.34937 0.34937 v 0.373222 0.373221 h -0.34937 -0.34937 z m 2.79498,-1.492887 v -0.373222 h 0.34937 0.34937 v 0.373222 0.373221 h -0.34937 -0.34937 z m 37.73221,0 v -0.373222 h 0.34938 0.34937 v 0.373222 0.373221 h -0.34937 -0.34938 z m -1.39749,-0.746444 v -0.373222 h 0.34938 0.34937 v 0.373222 0.373222 h -0.34937 -0.34938 z m -32.841,-0.746443 v -0.373222 h 0.34937 0.34937 v 0.373222 0.373221 h -0.34937 -0.34937 z m 26.5523,-1.492887 v -0.373222 h 0.34937 0.34938 v 0.373222 0.373221 h -0.34938 -0.34937 z m -18.86611,-0.746444 v -0.373222 h 0.34937 0.34938 v 0.373222 0.373222 h -0.34938 -0.34937 z m 15.37239,0 v -0.373222 h 0.34937 0.34937 v 0.373222 0.373222 h -0.34937 -0.34937 z m -7.16214,-0.867577 0.87343,-0.376495 0.87343,0.376495 0.87344,0.376496 h -1.74687 -1.74686 z"
         id="path220" />
      <path
         style="display:inline;fill:#fc9c0a;stroke-width:0.7222"
         d="m 52.836396,139.48189 -4.192468,-2.19246 -2.161187,-2.51669 -2.161188,-2.51668 -1.445655,-2.61255 -1.445656,-2.61255 -0.835429,-4.57952 -0.835429,-4.57952 0.771436,-3.84263 0.771436,-3.84263 1.489072,-3.14772 1.489072,-3.14773 20.923,-22.393307 20.923,-22.393305 -1.728857,3.751045 -1.728858,3.751045 -1.603448,5.579499 -1.603447,5.579499 0.01813,7.837656 0.01813,7.837657 2.197778,6.888181 2.197778,6.88818 1.87404,3.18881 1.874041,3.1888 2.468733,3.23452 2.468732,3.23453 -6.595224,7.01834 -6.595223,7.01834 -4.891214,3.49162 -4.891213,3.49161 -6.288703,0.29522 -6.288703,0.29521 -4.192468,-2.19247 z"
         id="path218" />
      <path
         style="display:inline;fill:#f54d5d;stroke-width:0.7222"
         d="m 128.51919,215.72105 0.9171,-0.39205 0.42216,0.45097 0.42215,0.45098 -1.33925,-0.0589 -1.33926,-0.0589 0.9171,-0.39204 z m 8.05012,0.0122 0.46583,-0.49762 0.46583,0.49762 0.46583,0.49766 h -0.93166 -0.93166 l 0.46583,-0.49763 z m 23.75732,0 0.46583,-0.49762 0.46583,0.49762 0.46583,0.49766 h -0.93166 -0.93166 l 0.46583,-0.49763 z m 19.68131,-2.3719 v -2.72879 l -1.92155,-0.23619 -1.92154,-0.23619 v -0.62698 -0.62699 l 1.57217,0.41115 1.57218,0.41115 0.87343,0.73004 0.87343,0.73003 v 2.10388 2.10388 l -0.52406,0.34689 -0.52406,0.3469 z m -138.700832,1.7499 v -0.37322 h 0.349372 0.349372 v 0.37322 0.37322 H 41.65648 41.307108 Z m 6.987447,0 v -0.37322 h 0.349373 0.349372 v 0.37322 0.37322 h -0.349372 -0.349373 z m 20.572553,-0.5898 -0.34593,-0.96301 0.195576,-11.91314 0.195575,-11.91313 0.346971,12.87711 0.34697,12.87711 -0.196616,-9.6e-4 -0.196616,-9.6e-4 z m 22.050878,0.5898 v -0.37322 h 0.349372 0.349372 v 0.37322 0.37322 h -0.349372 -0.349372 z m 9.083684,-0.37322 v -0.99526 l 0.46583,0.49763 0.46583,0.49763 -0.46583,0.49763 -0.46583,0.49762 z m 6.98745,0.37322 v -0.37322 h 0.34937 0.34937 v 0.37322 0.37322 h -0.34937 -0.34937 z m 18.8661,0 v -0.37322 h 0.34938 0.34937 v 0.37322 0.37322 h -0.34937 -0.34938 z m 13.9749,0 v -0.37322 h 0.34937 0.34937 v 0.37322 0.37322 h -0.34937 -0.34937 z m 17.46862,0 v -0.37322 h 0.34937 0.34937 v 0.37322 0.37322 h -0.34937 -0.34937 z m 27.25104,0 v -0.37322 h 0.34938 0.34937 v 0.37322 0.37322 h -0.34937 -0.34938 z m 21.66109,0 v -0.37322 h 0.34937 0.34938 v 0.37322 0.37322 h -0.34938 -0.34937 z m -82.86798,-1.235 -0.49857,-0.86178 0.80671,0.53261 0.8067,0.53261 v 0.32917 0.32917 h -0.30813 -0.30814 z m 17.88472,0.48855 v -0.37322 h 0.34937 0.34937 v 0.37322 0.37323 h -0.34937 -0.34937 z m 2.44561,-1.8661 1.26471,-1.49289 h 0.34937 0.34937 l -1.26471,1.49289 -1.26471,1.49288 h -0.34938 -0.34937 z m 10.83054,1.11966 v -0.37322 h 0.34937 0.34937 v 0.37322 0.37322 h -0.34937 -0.34937 z m -33.2571,-1.235 -0.49858,-0.86177 0.80671,0.53261 0.80671,0.5326 v 0.32917 0.32917 h -0.30813 -0.30814 z m 30.74477,-0.74644 -0.49858,-0.86178 0.80671,0.53261 0.80671,0.53261 v 0.32917 0.32917 H 152.79814 152.49 Z m -31.72616,-1.00433 v -0.37322 h 0.34937 0.34937 v 0.37322 0.37322 h -0.34937 -0.34937 z m 40.04761,-0.93306 -1.33314,-1.30627 0.96683,0.70484 0.96684,0.70485 2.90919,0.50799 2.90919,0.50801 -2.54288,0.0934 -2.54288,0.0934 z m -76.557028,0.003 -7.511506,-0.23994 v -10.01273 -10.01272 l -3.497676,-0.29049 -3.497677,-0.29048 3.672363,0.0649 3.672362,0.0649 0.194967,9.89037 0.194968,9.89038 h 6.925928 6.925929 l 0.431848,0.74644 0.431848,0.74645 -0.215924,-0.15853 -0.215924,-0.15853 z m 44.894348,-0.18944 -1.04811,-0.72358 0.69874,0.0411 0.69875,0.041 1.39748,0.64152 1.39749,0.64151 -1.04811,0.0411 -1.04812,0.041 z m 6.15769,0.23654 0.9171,-0.39204 0.42216,0.45097 0.42216,0.45098 -1.33926,-0.0589 -1.33926,-0.0589 0.9171,-0.39205 z m 10.61219,0.13668 v -0.37322 h 0.34937 0.34937 v 0.37322 0.37323 h -0.34937 -0.34937 z m 5.21185,-0.42288 -0.46058,-0.7961 0.33302,-0.35576 0.33302,-0.35575 0.41377,1.15186 0.41376,1.15186 h -0.28621 -0.2862 z m 17.49735,-0.69678 1.26472,-1.49289 h 0.34937 0.34937 l -1.26471,1.49289 -1.26472,1.49289 h -0.34937 -0.34937 z m -48.27265,-0.73788 0.0753,-1.11108 1.38946,-0.15233 1.38947,-0.15232 -1.17984,0.37625 -1.17984,0.37626 -0.28493,0.88716 -0.28493,0.88716 z m 17.17851,1.1111 v -0.37322 h 0.34937 0.34937 v 0.37322 0.37322 h -0.34937 -0.34937 z m 58.51987,-0.17709 3.66841,-0.27415 3.66841,0.27415 3.66841,0.27416 h -7.33682 -7.33682 z m -87.86715,-1.68902 v -0.99525 l 0.46583,0.49762 0.46583,0.49763 -0.46583,0.49763 -0.46583,0.49763 z m 19.14876,-0.11533 -0.49858,-0.86178 0.80671,0.53261 0.80671,0.5326 v 0.32918 0.32917 h -0.30813 -0.30814 z m 10.59281,-0.41231 -0.47708,-1.33847 0.86824,0.92061 0.86825,0.92062 -0.39116,0.41785 -0.39115,0.41786 z m -88.43613,0.15442 v -0.37322 h 0.349372 0.349373 v 0.37322 0.37322 H 49.342672 48.9933 Z m 75.46443,0 v -0.37322 h 0.34938 0.34937 v 0.37322 0.37322 h -0.34937 -0.34938 z m 25.15482,0 v -0.37322 h 0.34937 0.34937 v 0.37322 0.37322 h -0.34937 -0.34937 z m 8.38493,0 v -0.37322 h 0.34938 0.34937 v 0.37322 0.37322 h -0.34937 -0.34938 z M 60.871961,206.1541 v -0.37323 h 0.349372 0.349373 v 0.37323 0.37322 h -0.349373 -0.349372 z m 38.014865,-0.48856 -0.498572,-0.86177 0.806707,0.5326 0.806709,0.53261 v 0.32917 0.32917 h -0.308137 -0.308135 z m 70.989314,0.11533 v -0.99525 l 0.46584,0.49762 0.46582,0.49763 -0.46582,0.49764 -0.46584,0.49762 z m 7.6862,0.37323 v -0.37323 h 0.34937 0.34937 v 0.37323 0.37322 h -0.34937 -0.34937 z m -68.82636,-1.11967 0.43184,-0.74644 h 0.34937 0.34938 l -0.43185,0.74644 -0.43184,0.74644 h -0.34938 -0.34937 z m 26.43584,0.24881 0.46583,-0.49762 0.46583,0.49762 0.46583,0.49763 h -0.93166 -0.93166 z m 10.24826,-0.24881 v -0.99525 l 0.46583,0.49762 0.46582,0.49763 -0.46582,0.49763 -0.46583,0.49763 z m 11.87866,0 v -0.99525 l 0.46583,0.49762 0.46583,0.49763 -0.46583,0.49763 -0.46583,0.49763 z m -25.98457,-0.5099 0.9171,-0.39205 0.42216,0.45097 0.42215,0.45098 -1.33925,-0.0589 -1.33927,-0.0589 0.91711,-0.39204 z m 47.00208,-0.67197 0.0551,-1.43068 0.36699,0.97971 0.367,0.9797 -0.42216,0.45098 -0.42216,0.45097 0.0551,-1.43068 z m -80.410817,0.0622 v -0.37323 h 0.349373 0.349372 v 0.37323 0.37322 h -0.349372 -0.349373 z m 30.046027,0 v -0.37323 h 0.34937 0.34937 v 0.37323 0.37322 h -0.34937 -0.34937 z m 21.09856,-1.49289 0.0259,-2.23933 0.32212,1.32048 0.32211,1.32048 -0.348,0.91885 -0.34801,0.91885 0.0259,-2.23933 z m -38.91655,0.37322 0.43184,-0.74644 h 0.34937 0.34938 l -0.43185,0.74644 -0.43184,0.74644 h -0.34938 -0.34937 z m 15.25592,0.24881 0.46583,-0.49762 0.46584,0.49762 0.46582,0.49763 h -0.93166 -0.93165 z m 18.54407,-0.80864 -0.95899,-1.30628 1.2228,1.02445 1.22281,1.02446 v 0.28182 0.28182 h -0.26382 -0.26381 z m -20.17447,0.18661 v -0.37322 h 0.34937 0.34937 v 0.37322 0.37322 h -0.34937 -0.34937 z m -27.251046,-0.74644 v -0.37323 h 0.349372 0.349373 v 0.37323 0.37322 h -0.349373 -0.349372 z m 15.023016,-1.11967 0.43184,-0.74644 h 0.34937 0.34938 l -0.43185,0.74644 -0.43184,0.74644 h -0.34938 -0.34937 z m 30.39539,0.37322 v -0.37322 h 0.34938 0.34937 v 0.37322 0.37322 h -0.34937 -0.34938 z m 36.44506,-1.11966 v -1.86611 l 0.35244,0.93305 0.35244,0.93306 -0.35244,0.93305 -0.35244,0.93306 z m -126.387362,0.19686 3.340121,-0.2805 2.948582,0.28463 2.948582,0.28464 -6.288703,-0.004 -6.288702,-0.004 3.34012,-0.28049 z m 88.078982,0.052 0.46583,-0.49763 0.46584,0.49763 0.46582,0.49763 h -0.93166 -0.93165 z m 17.29087,-0.68424 0.0551,-1.43068 0.367,0.97971 0.36699,0.9797 -0.42215,0.45098 -0.42216,0.45097 0.0551,-1.43068 z m -62.243446,0.0622 v -0.37322 h 0.349373 0.349372 v 0.37322 0.37323 h -0.349372 -0.349373 z m 8.040516,-0.36467 -0.42691,-0.73789 1.08441,0.44453 1.08441,0.44454 v 0.29336 0.29336 h -0.65751 -0.6575 z m 17.81304,0.36467 v -0.37322 h 0.34937 0.34938 v 0.37322 0.37323 h -0.34938 -0.34937 z m 12.6556,-0.43367 -3.06616,-0.64334 -0.40133,-0.42873 -0.40134,-0.42872 3.11812,0.52737 3.11812,0.52737 1.74686,0.56231 1.74687,0.56232 -1.39749,-0.0176 -1.39749,-0.0176 -3.06616,-0.64333 z m -20.69116,-0.68599 0.43184,-0.74644 h 0.34937 0.34938 l -0.43185,0.74644 -0.43184,0.74644 h -0.34938 -0.34937 z m 56.94769,0 v -0.99526 l 0.46584,0.49763 0.46582,0.49763 -0.46582,0.49763 -0.46584,0.49763 z m -75.880527,-0.86178 -0.498572,-0.86177 0.806707,0.53261 0.806706,0.5326 v 0.32917 0.32917 H 94.80232 94.494185 Z m 11.246637,0.11534 0.43185,-0.74645 h 0.34937 0.34938 l -0.43185,0.74645 -0.43185,0.74644 h -0.34937 -0.34937 z m 15.13334,-1.49289 v -1.86611 l 0.35244,0.93305 0.35244,0.93306 -0.35244,0.93305 -0.35244,0.93306 z m 8.27461,1.11966 v -0.37322 h 0.34938 0.34937 v 0.37322 0.37323 h -0.34937 -0.34938 z m 20.96235,0 v -0.37322 h 0.34937 0.34937 v 0.37322 0.37323 h -0.34937 -0.34937 z m 8.38493,0 v -0.37322 h 0.34938 0.34937 v 0.37322 0.37323 h -0.34937 -0.34938 z m -56.59832,-0.74644 v -0.37322 h 0.34937 0.34937 v 0.37322 0.37322 h -0.34937 -0.34937 z m 12.5774,0 v -0.37322 h 0.34938 0.34937 v 0.37322 0.37322 h -0.34937 -0.34938 z m 23.75732,0 v -0.37322 h 0.34938 0.34937 v 0.37322 0.37322 h -0.34937 -0.34938 z m 7.09778,-1.11966 v -1.86611 l 0.35244,0.93305 0.35244,0.93306 -0.35244,0.93305 -0.35244,0.93305 z m 23.23123,-0.18662 -1.3311,-1.67949 1.57218,1.42196 1.57217,1.42197 v 0.25753 0.25753 h -0.24107 -0.24107 z m 9.49945,1.30628 v -0.37322 h 0.34937 0.34937 v 0.37322 0.37322 h -0.34937 -0.34937 z m -84.964217,-1.235 -0.498572,-0.86177 0.806707,0.53261 0.806707,0.5326 v 0.32917 0.32917 H 93.40483 93.096696 Z m 13.692247,0.48856 v -0.37322 h 0.34937 0.34938 v 0.37322 0.37322 h -0.34938 -0.34937 z m 52.75523,-0.37322 0.43185,-0.74645 h 0.34937 0.34937 l -0.43185,0.74645 -0.43184,0.74644 h -0.34937 -0.34938 z m -95.37866,-0.74645 v -0.74644 h 0.739983 0.739982 l -0.431848,0.74644 -0.431848,0.74645 H 63.975075 63.66694 Z m 36.61738,-0.11533 -0.498576,-0.86178 0.806706,0.53261 0.80671,0.5326 v 0.32918 0.32917 h -0.30814 -0.30813 z m 28.71526,0.11533 0.43184,-0.74644 h 0.34937 0.34938 l -0.43185,0.74644 -0.43185,0.74645 h -0.34937 -0.34937 z m 21.31171,0.37322 v -0.37322 h 0.34937 0.34938 v 0.37322 0.37323 h -0.34938 -0.34937 z m 26.5523,0 v -0.37322 h 0.34937 0.34938 v 0.37322 0.37323 h -0.34938 -0.34937 z m -61.48954,-0.74644 v -0.37322 h 0.34937 0.34938 v 0.37322 0.37322 h -0.34938 -0.34937 z m 20.2636,0 v -0.37322 h 0.34937 0.34938 v 0.37322 0.37322 h -0.34938 -0.34937 z m 25.15481,0 v -0.37322 h 0.34937 0.34938 v 0.37322 0.37322 h -0.34938 -0.34937 z m -69.591826,-1.235 -0.498572,-0.86177 0.806707,0.53261 0.806706,0.5326 v 0.32917 0.32917 h -0.308134 -0.308135 z m 16.487226,0.48856 v -0.37322 h 0.34937 0.34937 v 0.37322 0.37322 h -0.34937 -0.34937 z m 24.28138,-0.12114 0.87343,-0.37649 0.87343,0.37649 0.87343,0.3765 h -1.74686 -1.74686 z m 31.48719,-0.0155 0.9171,-0.39205 0.42216,0.45097 0.42215,0.45098 -1.33925,-0.0589 -1.33927,-0.0589 0.91711,-0.39204 z m 12.29232,-0.35188 -0.49857,-0.86177 0.8067,0.53261 0.80671,0.5326 v 0.32917 0.32917 h -0.30813 -0.30814 z m -76.445827,-0.25791 v -0.37322 h 0.349372 0.349375 v 0.37322 0.37323 h -0.349375 -0.349372 z m 22.010457,-0.37322 0.43185,-0.74644 h 0.34937 0.34937 l -0.43184,0.74644 -0.43185,0.74645 h -0.34937 -0.34937 z m 22.70921,0.37322 v -0.37322 h 0.34937 0.34937 v 0.37322 0.37323 h -0.34937 -0.34937 z m 8.73431,-1.11966 1.26471,-1.49289 h 0.34937 0.34938 l -1.26472,1.49289 -1.26471,1.49289 h -0.34937 -0.34938 z m -44.02092,0 0.43184,-0.74645 h 0.34937 0.34938 l -0.43185,0.74645 -0.43184,0.74644 h -0.34938 -0.34937 z m 8.03556,0.37322 v -0.37322 h 0.34937 0.34938 v 0.37322 0.37322 h -0.34938 -0.34937 z m -26.901671,-1.11967 -0.431848,-0.74644 0.431848,-0.74644 0.431848,-0.74645 h 3.344188 3.34419 l 1.3311,1.6795 1.3311,1.6795 -1.452509,-1.30628 -1.452509,-1.30627 h -3.338776 -3.338776 l 0.4022,1.11966 0.4022,1.11967 h -0.286204 -0.286204 z m 52.364721,-0.4144 -1.35635,-1.16084 1.57217,0.81389 1.57218,0.81388 v 0.34696 0.34696 h -0.21582 -0.21583 z m 30.08716,-0.38267 -2.09623,-1.4344 0.79602,-0.004 0.79602,-0.004 1.64959,1.46805 1.64958,1.46806 -0.34937,-0.0297 -0.34938,-0.0297 -2.09623,-1.43439 z m -54.85146,0.42385 v -0.37322 h 0.34937 0.34937 v 0.37322 0.37322 h -0.34937 -0.34937 z m 5.93933,-0.37322 0.43184,-0.74644 h 0.34937 0.34938 l -0.43185,0.74644 -0.43184,0.74644 h -0.34938 -0.34937 z m -81.645178,-0.93305 0.323886,-0.55984 h 11.097441 11.09744 l 0.323886,0.55984 0.323886,0.55983 H 53.185769 41.440556 Z m 68.019648,0.55983 v -0.37322 h 0.34938 0.34937 v 0.37322 0.37322 h -0.34937 -0.34938 z m 45.93082,-0.46585 0.86179,-0.92751 0.39115,0.41785 0.39116,0.41786 -1.25294,0.50966 -1.25294,0.50966 z m 32.67797,0.0926 -3.49372,-0.51191 3.27779,-0.11727 3.27781,-0.11727 0.43184,0.74645 0.43185,0.74644 -0.21592,-0.11726 -0.21593,-0.11728 z m -75.63912,-0.53464 1.92155,-0.31096 1.92155,0.31096 1.92154,0.31096 h -3.84309 -3.8431 z m 13.10146,-0.1777 1.04812,-0.75769 1.33926,-0.0114 1.33926,-0.0114 -0.29114,0.26822 -0.29114,0.26821 -2.09624,0.50091 -2.09623,0.5009 1.04811,-0.75769 z m 13.12646,0.30362 -0.38261,-0.40873 -4.45037,-0.67631 -4.45038,-0.6763 4.2999,0.26128 4.2999,0.26129 1.29006,0.80105 1.29006,0.80104 -0.75698,0.0227 -0.75697,0.0227 z m 20.41329,-1.08047 1.74686,-0.60133 3.08613,-0.0744 3.08612,-0.0744 -0.29114,0.26875 -0.29115,0.26874 -4.54184,0.407 -4.54184,0.40699 1.74686,-0.60134 z m 8.95267,0.23284 0.9171,-0.39205 0.42216,0.45098 0.42216,0.45097 -1.33926,-0.0589 -1.33926,-0.0589 0.9171,-0.39205 z m -78.544161,-72.08173 -1.3311,-1.67949 1.572176,1.42196 1.572175,1.42197 v 0.25753 0.25753 h -0.241075 -0.241076 z m -2.379217,-3.17238 v -0.37322 h 0.349372 0.349373 v 0.37322 0.37322 h -0.349373 -0.349372 z m -1.114842,-1.98144 -0.498572,-0.86178 0.806707,0.53261 0.806707,0.5326 v 0.32918 0.32916 h -0.308135 -0.308134 z m -0.981392,-1.75078 v -0.37322 h 0.349372 0.349372 v 0.37322 0.37322 H 85.6774 85.328028 Z m -0.698745,-1.49288 v -0.37323 h 0.349372 0.349373 v 0.37323 0.37322 h -0.349373 -0.349372 z m -0.698745,-1.49289 v -0.37322 h 0.349372 0.349373 v 0.37322 0.37322 H 84.27991 83.930538 Z m -0.698745,-1.49289 v -0.37322 h 0.349373 0.349372 v 0.37322 0.37322 h -0.349372 -0.349373 z m -0.955335,-2.99665 -0.442154,-1.23089 v -0.845343 -0.845346 l 1.192857,1.274285 1.192857,1.274284 -0.750704,0.80195 -0.750703,0.80195 z m -1.140899,-4.094562 v -0.995257 l 0.46583,0.497628 0.465829,0.497629 -0.465829,0.49763 -0.46583,0.497628 z m -0.698745,-2.985774 v -0.995257 l 0.46583,0.497628 0.46583,0.497629 -0.46583,0.49763 -0.46583,0.497628 z m 16.528799,-4.350825 -1.156414,-1.365052 v -1.529324 -1.529325 l 1.065003,-0.94421 1.065003,-0.94421 0.419006,0.447609 0.419006,0.447609 2.736613,-1.49142 2.73662,-1.49142 0.68276,-1.918406 0.68277,-1.918406 2.18959,0.343301 2.18958,0.3433 1.11728,-1.259043 1.11727,-1.259043 0.77557,-1.427387 0.77557,-1.427387 2.01941,-0.06279 2.01941,-0.06279 3.49372,-2.028947 3.49373,-2.028947 0.6638,-0.707424 0.66381,-0.707426 h 1.25774 1.25774 v -0.655885 -0.655885 l 1.92155,-0.793014 1.92155,-0.793015 1.7375,0.142623 1.73751,0.142623 0.22713,1.26108 0.22713,1.26108 -1.90545,2.284527 -1.90545,2.284527 -0.75793,0.02483 -0.75793,0.02483 -1.57218,1.401092 -1.57217,1.401091 v 0.697716 0.697715 l -1.37452,1.328833 -1.37451,1.328831 -1.47176,-0.411146 -1.47175,-0.411147 -4.08407,2.557 -4.08406,2.556999 h -0.69763 -0.69763 l -0.23292,0.584449 -0.23291,0.584448 -2.79498,1.777426 -2.79498,1.777426 -3.00664,1.743565 -3.00664,1.743564 h -1.252214 -1.252219 z m 4.034027,-0.04116 0.3817,-0.659767 3.09417,-1.553716 3.09417,-1.553717 -0.38953,-1.591275 -0.38954,-1.591276 1.54225,1.005596 1.54225,1.005596 1.2893,-1.679498 1.2893,-1.679498 h 1.4821 1.4821 l 0.40066,-1.115378 0.40066,-1.115378 0.57725,0.38111 0.57724,0.381111 0.40066,-0.692535 0.40066,-0.692534 -1.22581,-2.300696 -1.22581,-2.300696 -0.92051,-0.0047 -0.92052,-0.0047 0.44355,1.492887 0.44354,1.492887 h -1.00965 -1.00964 l -0.92658,1.192668 -0.92657,1.192668 -2.37644,-0.411969 -2.37645,-0.411969 0.35707,1.458631 0.35706,1.458632 -0.45864,0.01143 -0.45864,0.01143 -0.94557,0.640085 -0.94558,0.640085 0.79107,1.774426 0.79107,1.774426 -1.09995,-1.593309 -1.09996,-1.593309 -1.70976,0.846865 -1.70975,0.846866 -0.005,0.48995 -0.005,0.489952 -1.397492,-0.390399 -1.397489,-0.390399 v 1.334559 1.33456 l 1.156414,1.365051 1.156413,1.365052 h 0.549214 0.54921 z m -1.347345,-2.326007 -0.431848,-0.746444 h 0.739983 0.73998 v 0.746444 0.746443 h -0.30813 -0.30814 z m 2.445605,-1.866109 v -0.373222 h 0.34937 0.34938 v 0.373222 0.373222 h -0.34938 -0.34937 z m 9.08368,-5.225104 v -0.373222 h 0.34938 0.34937 v 0.373222 0.373221 h -0.34937 -0.34938 z m 2.09624,-0.746444 v -0.373222 h 0.34937 0.34937 v 0.373222 0.373222 h -0.34937 -0.34937 z m 8.61785,-3.8588 -0.11646,-0.619861 h 1.70146 1.70145 l -1.10275,0.861395 -1.10275,0.861396 0.77116,0.509142 0.77117,0.509142 1.06243,-0.941927 1.06243,-0.941928 -0.40294,-1.715001 -0.40293,-1.715001 0.90213,0.369807 0.90212,0.369808 1.24078,-0.969217 1.24078,-0.969218 -0.44142,-1.228869 -0.44144,-1.22887 -1.00993,-0.414006 -1.00994,-0.414006 -1.32342,1.413754 -1.32341,1.413753 -0.40332,-0.430849 -0.40331,-0.43085 -1.3853,1.339257 -1.3853,1.339256 0.2807,0.485167 0.28068,0.485168 -1.85015,-0.0251 -1.85015,-0.02509 -0.25158,1.342134 -0.25157,1.342136 0.85721,1.103379 0.8572,1.10338 1.47142,-1.07921 1.47141,-1.079211 z m -2.74524,-0.36197 -0.49858,-0.861776 0.80671,0.532606 0.80671,0.532607 v 0.329169 0.329169 h -0.30814 -0.30814 z m 3.90981,-2.497221 v -0.373222 h 0.34938 0.34937 v 0.373222 0.373222 h -0.34937 -0.34938 z m 10.48118,-3.438857 v -0.666582 l -0.87343,-0.02989 -0.87344,-0.02989 2.09624,-1.212886 2.09623,-1.212886 -0.89692,-0.320684 -0.89692,-0.320684 -1.04062,0.922592 -1.04062,0.922592 0.44012,-1.225244 0.44013,-1.225242 -0.59882,0.02374 -0.59882,0.02374 -1.27695,1.033903 -1.27695,1.033903 1.155,1.883087 1.155,1.883087 0.99538,-0.408038 0.99539,-0.408034 z m -2.79498,-1.786248 v -0.373221 h 0.34937 0.34937 v 0.373221 0.373222 h -0.34937 -0.34937 z m -50.953207,21.584658 0.05517,-1.430683 0.366994,0.979707 0.366994,0.979707 -0.422158,0.450976 -0.422159,0.450976 z m 0.135149,-7.02901 v -3.358995 l 0.302815,1.679498 0.302814,1.679497 -0.302814,1.679498 -0.302815,1.679498 z m 0.563596,-7.153416 0.05517,-1.430684 0.366994,0.979707 0.366994,0.979707 -0.422158,0.450977 -0.422159,0.450976 z m 0.643581,-2.923571 v -0.37338 h 0.349372 0.349373 v 0.373221 0.373222 h -0.349373 -0.349372 z m 0.698745,-2.612552 V 68.93293 l 0.46583,0.497629 0.465829,0.497629 -0.465829,0.497629 -0.46583,0.497629 z m 0.709444,-2.008667 0.0107,-0.603885 0.677345,-1.119665 0.677345,-1.119666 0.0107,1.262224 0.0107,1.262223 -0.698745,0.461327 -0.698744,0.461328 z m 1.38679,-3.589659 V 63.95664 h 0.349372 0.349373 v 0.373222 0.373222 H 84.27991 83.930538 Z m 0.698745,-1.492887 v -0.373222 h 0.349372 0.349373 v 0.373222 0.373222 h -0.349373 -0.349372 z m 0.698745,-1.492887 v -0.373222 h 0.349372 0.349372 v 0.373222 0.373222 H 85.6774 85.328028 Z m 0.731555,-1.506004 -0.03281,-0.759561 5.0659,-5.661469 5.065899,-5.66147 -3.144351,3.808478 -3.144351,3.808478 -1.888738,2.612552 -1.888736,2.612552 z M 97.032002,56.141725 95.809199,54.345272 V 53.270806 52.19634 l 0.873431,-0.736095 0.873431,-0.736097 1.126582,0.02266 1.126581,0.02266 2.541826,-1.678173 2.54183,-1.678175 V 46.391426 45.36973 l 1.17718,-0.703755 1.17719,-0.703755 1.16496,0.777193 1.16495,0.777193 1.32627,-1.482304 1.32627,-1.482305 0.78208,-1.427387 0.7821,-1.427387 h 1.77611 1.77611 l 0.52792,-0.559833 0.52792,-0.559833 h 1.28104 1.28103 V 37.831114 37.08467 h 1.15642 1.15641 l -1.15794,1.366852 -1.15794,1.366851 0.31763,0.339312 0.31763,0.339312 -1.88828,-0.02666 -1.88828,-0.02667 -0.2237,1.682835 -0.22369,1.682836 1.1921,0.488678 1.1921,0.48868 1.12783,-0.795776 1.12783,-0.795776 -0.1663,-0.789043 -0.16631,-0.789043 1.01764,0.417164 1.01764,0.417162 -0.0606,0.489029 -0.0606,0.489028 0.0827,0.586096 0.0827,0.586095 1.39749,-0.798969 1.39749,-0.798969 v -1.317336 -1.317335 l -0.87343,-1.046344 -0.87343,-1.046343 1.2139,0.980564 1.21391,0.980563 1.05702,-0.433304 1.05701,-0.433303 v -1.143092 -1.143093 h 1.35625 1.35625 l 0.43185,0.746444 0.43184,0.746443 -0.91466,0.02484 -0.91467,0.02483 -1.48202,1.323108 -1.48203,1.323109 -0.48609,1.636097 -0.4861,1.636097 -1.66057,0.445229 -1.66058,0.445228 -0.62887,-0.415194 -0.62887,-0.415195 -3.778,2.198422 -3.778,2.198422 -1.57218,0.740577 -1.57217,0.740578 v 0.764918 0.764919 h -0.72018 -0.72017 l -4.93235,2.985774 -4.93234,2.985774 -1.160242,-0.02345 -1.160242,-0.02346 z m 5.416418,-0.582574 2.42716,-1.679498 0.009,-0.790387 0.009,-0.790387 -1.09201,-1.448943 -1.09202,-1.448944 -0.3637,0.933054 -0.36371,0.933055 h -1.0032 -1.003197 l 0.464587,1.977443 0.4646,1.977443 -0.81205,-0.536134 -0.812053,-0.536135 0.356757,-0.616649 0.356757,-0.616649 -1.160946,-0.475909 -1.160946,-0.475907 -0.660586,0.705679 -0.660585,0.705679 1.301486,1.907886 1.301486,1.907887 0.533858,0.02346 0.533862,0.02346 z m -0.35052,-3.172385 v -0.373222 h 0.34937 0.34938 v 0.373222 0.373222 h -0.34938 -0.34937 z m 5.01566,-1.042281 -0.22493,-1.649957 1.49324,0.972897 1.49324,0.972898 1.19124,-1.550128 1.19123,-1.550126 0.77839,0.277174 0.77839,0.277174 1.25399,-1.339599 1.254,-1.3396 h 0.51574 0.51574 l 0.43599,-0.465757 0.436,-0.465757 -1.52115,-2.754148 -1.52115,-2.754149 -0.76067,0.812595 -0.76067,0.812595 0.84572,1.446637 0.8457,1.446639 -1.04679,-0.429113 -1.04679,-0.429112 -1.07101,0.949543 -1.07103,0.949543 0.39717,1.105654 0.39717,1.105654 -0.88943,-0.749097 -0.88942,-0.749098 -1.92155,-0.490369 -1.92155,-0.490368 v 1.238208 1.238207 l -1.09979,0.85908 -1.09978,0.85908 0.87082,2.041702 0.87081,2.041703 0.75303,-0.275325 0.75303,-0.275325 z m 6.16426,-4.929267 v -0.373222 h 0.34937 0.34937 v 0.373222 0.373222 h -0.34937 -0.34937 z m 36.09753,9.462955 -1.16029,-1.369627 v -1.098213 -1.098211 l 0.83849,-0.895733 0.83849,-0.895732 h 1.84003 1.84003 l 0.46736,-0.499257 0.46735,-0.499258 -1.21933,-1.553462 -1.21933,-1.553462 1.9581,1.851313 1.9581,1.851313 -0.74465,0.265161 -0.74465,0.26516 0.30243,0.522737 0.30242,0.522738 -1.52087,0.15194 -1.52088,0.15194 -1.2228,0.0544 -1.2228,0.0544 v 1.297208 1.297207 l 0.82684,0.883292 0.82685,0.883292 -0.3653,0.390238 -0.3653,0.390239 -1.16029,-1.369628 z m 3.03217,-2.042573 v -1.163718 l 0.71015,0.468852 0.71014,0.468854 -0.40201,0.694864 -0.402,0.694866 h -0.30814 -0.30814 z M 97.206689,47.25306 v -0.281824 l 1.222803,-1.024452 1.222803,-1.024453 -0.958989,1.306276 -0.958988,1.306276 h -0.263815 -0.263814 z m 53.015471,-1.770896 -0.95899,-1.306276 1.22281,1.024452 1.2228,1.024452 v 0.281824 0.281824 h -0.26382 -0.26381 z m -50.22049,-0.507307 v -0.373222 l 1.39749,-0.798969 1.39749,-0.798969 v 0.373221 0.373222 l -1.39749,0.798969 -1.39749,0.79897 z m 48.21339,-0.798969 v -0.373222 h 0.34937 0.34937 v 0.373222 0.373221 h -0.34937 -0.34937 z m -2.79498,-1.492887 -1.74686,-1.066764 0.73988,-0.02645 0.73987,-0.02645 1.35636,1.095926 1.35635,1.095926 -0.34937,-0.0027 -0.34937,-0.0027 z m -41.41228,-0.465847 0.86179,-0.927515 0.39115,0.417856 0.39116,0.417855 -1.25294,0.50966 -1.25294,0.509659 z m 15.55872,0.465847 V 42.30962 h 0.34937 0.34938 v 0.373222 0.373221 h -0.34938 -0.34937 z m 4.89121,-0.746444 v -0.373222 h 0.34938 0.34937 v 0.373222 0.373222 h -0.34937 -0.34938 z m -18.16736,-0.746443 v -0.373222 h 0.34937 0.34938 v 0.373222 0.373221 h -0.34938 -0.34937 z m 36.33473,0 v -0.373222 h 0.34937 0.34937 v 0.373222 0.373221 h -0.34937 -0.34937 z m -34.70433,-0.870851 0.46583,-0.497629 0.46584,0.497629 0.46582,0.497629 h -0.93166 -0.93165 z m 33.30684,0.124407 v -0.373222 h 0.34937 0.34937 v 0.373222 0.373222 h -0.34937 -0.34937 z m -31.44352,-0.746443 v -0.373222 h 0.34938 0.34937 v 0.373222 0.373221 h -0.34937 -0.34938 z m 13.27615,0 v -0.373222 h 0.34938 0.34937 v 0.373222 0.373221 h -0.34937 -0.34938 z m 16.30405,-0.124408 0.46583,-0.497628 0.46583,0.497628 0.46583,0.497629 h -0.93166 -0.93166 z m -27.94979,-0.746443 0.46583,-0.497629 0.46583,0.497629 0.46583,0.497629 h -0.93166 -0.93166 z m 25.85355,0 0.46583,-0.497629 0.46584,0.497629 0.46582,0.497629 h -0.93166 -0.93165 z m -22.72376,-0.758721 0.91711,-0.392046 0.42216,0.450976 0.42215,0.450976 -1.33926,-0.05893 -1.33926,-0.05893 z m 19.92878,0.01228 0.46584,-0.497631 0.46583,0.497629 0.46582,0.497629 h -0.93165 -0.93166 l 0.46582,-0.497629 z m -16.47872,-0.743171 0.87343,-0.376496 0.87343,0.376496 0.87343,0.376495 h -1.74686 -1.74687 z m 6.46338,0.121133 v -0.373222 h 0.34938 0.34937 v 0.373222 0.373222 h -0.34937 -0.34938 z"
         id="path216" />
      <path
         style="fill:#2a8ae8;stroke-width:0.7222"
         d="m 114.67531,132.21498 -4.54184,-1.04206 -5.58996,-2.99677 -5.58996,-2.99677 -2.987905,-2.80643 -2.987904,-2.80643 32.063519,-34.229777 32.06352,-34.229777 1.56053,1.759485 1.56053,1.759486 2.07741,3.19361 2.07741,3.19361 1.67725,4.051452 1.67725,4.051452 1.07049,4.930964 1.07049,4.930964 v 6.179047 6.179048 l -1.35176,5.646156 -1.35177,5.64616 -1.8805,3.99039 -1.88051,3.99041 -3.58049,4.5246 -3.58049,4.52459 -3.59645,3.14761 -3.59644,3.14761 -4.15806,2.21965 -4.15806,2.21964 -5.45873,1.49142 -5.45874,1.49141 -5.30349,-0.0593 -5.3035,-0.0593 z"
         id="path214" />
      <path
         style="display:inline;fill:#f53a5a;stroke-width:0.7222"
         d="m 90.430449,116.28277 -2.234398,-2.86767 -2.552515,-4.96073 -2.552515,-4.96073 0.436605,-1.21544 0.436606,-1.21544 -0.999962,-1.19833 -0.999961,-1.198326 -0.867004,-3.358996 -0.867003,-3.358996 0.079,-6.803093 0.079,-6.803094 0.757945,-3.612975 0.757945,-3.612976 1.071464,-2.646692 1.071464,-2.646692 1.026652,-2.533765 1.026652,-2.533766 3.104907,-4.310507 3.104907,-4.310506 3.671027,-3.43206 3.671027,-3.432061 5.637858,-2.984579 5.63785,-2.984579 5.018,-1.021408 5.01801,-1.021407 v 0.659725 0.659725 h -1.28103 -1.28104 l -0.52792,0.559833 -0.52792,0.559833 h -1.77611 -1.77611 l -0.7821,1.427387 -0.78208,1.427387 -1.32627,1.482305 -1.32627,1.482304 -1.16495,-0.777193 -1.16496,-0.777193 -1.17719,0.703755 -1.17718,0.703755 v 1.021696 1.021694 l -2.54183,1.678174 -2.541829,1.678174 -1.126581,-0.02266 -1.126582,-0.02266 -0.873431,0.736097 -0.873431,0.736095 0.02325,1.214879 0.02325,1.214877 1.31156,1.679498 1.31156,1.679498 h 1.04824 1.048234 l 4.93234,-2.985774 4.93235,-2.985774 h 0.72017 0.72018 v -0.764918 -0.764919 l 1.57217,-0.740577 1.57218,-0.740578 3.778,-2.198422 3.778,-2.198422 0.62887,0.415195 0.62887,0.415195 1.66058,-0.445229 1.66057,-0.445229 0.49763,-1.674898 0.49761,-1.674898 1.12113,-0.961437 1.12113,-0.961438 1.54209,-0.690234 1.5421,-0.690234 3.69849,1.1729 3.69849,1.172901 4.19247,2.251698 4.19246,2.251698 2.62362,2.208572 2.62361,2.20857 -0.39393,0.680909 -0.39393,0.680908 h -1.91525 -1.91525 l -0.83849,0.895732 -0.83849,0.895733 v 1.098211 1.098213 l 1.18745,1.401694 1.18746,1.401695 -28.96256,30.919329 -28.962559,30.919331 z m 13.202651,-26.451444 3.00664,-1.743565 2.79498,-1.777426 2.79498,-1.777426 0.23291,-0.584448 0.23292,-0.584449 h 0.69763 0.69763 l 4.08406,-2.557 4.08407,-2.556999 1.47175,0.411146 1.47176,0.411146 1.37451,-1.328831 1.37452,-1.328832 V 75.716926 75.01921 l 1.57217,-1.401091 1.57218,-1.401092 0.75793,-0.02483 0.75793,-0.02483 1.90545,-2.284527 1.90545,-2.284527 -0.22713,-1.26108 -0.22713,-1.261079 -1.73751,-0.142623 -1.7375,-0.142623 -1.92155,0.793015 -1.92155,0.793014 v 0.655885 0.655885 h -1.25774 -1.25774 l -0.66381,0.707423 -0.6638,0.707423 -3.49373,2.028947 -3.49372,2.028947 -2.01941,0.06279 -2.01941,0.06279 -0.77557,1.427387 -0.77557,1.427388 -1.11727,1.259042 -1.11728,1.259043 -2.18958,-0.3433 -2.18959,-0.3433 -0.68277,1.918406 -0.68276,1.918405 -2.73662,1.49142 -2.736613,1.49142 -0.419006,-0.447609 -0.419006,-0.447608 -1.065003,0.94421 -1.065003,0.944213 v 1.529325 1.529324 l 1.156414,1.365052 1.156414,1.365051 h 1.252219 1.252214 z m -5.269997,-0.367931 -1.156414,-1.365051 v -1.33456 -1.334559 l 1.397489,0.390399 1.397492,0.390399 0.005,-0.489952 0.005,-0.48995 1.70975,-0.846866 1.70975,-0.846865 1.09996,1.593309 1.09996,1.593309 -0.79107,-1.774426 -0.79107,-1.774426 0.94558,-0.640085 0.94557,-0.640085 0.45864,-0.01143 0.45864,-0.01143 -0.35706,-1.458632 -0.35707,-1.458631 2.37645,0.411969 2.37644,0.411969 0.92657,-1.192668 0.92658,-1.192668 h 1.00964 1.00965 l -0.44354,-1.492887 -0.44355,-1.492887 0.92052,0.0047 0.92051,0.0047 1.22581,2.300697 1.22581,2.300695 -0.40066,0.692535 -0.40066,0.692534 -0.57724,-0.381111 -0.57725,-0.38111 -0.40066,1.115379 -0.40066,1.115377 h -1.4821 -1.4821 l -1.2893,1.679498 -1.2893,1.679498 -1.54225,-1.005596 -1.54225,-1.005595 0.38954,1.591276 0.38953,1.591275 -3.09417,1.553716 -3.09417,1.553717 -0.3817,0.659766 -0.3817,0.659801 h -0.54921 -0.549214 z m 2.337307,-1.620722 v -0.746444 h -0.73998 -0.739983 l 0.431848,0.746444 0.431845,0.746443 h 0.30814 0.30813 z m 2.09624,-1.866109 v -0.373222 h -0.34938 -0.34937 v 0.373222 0.373222 h 0.34937 0.34938 z m 9.08368,-5.225104 v -0.373222 h -0.34937 -0.34938 v 0.373222 0.373221 h 0.34938 0.34937 z m 2.09623,-0.746444 v -0.373222 h -0.34937 -0.34937 v 0.373222 0.373222 h 0.34937 0.34937 z m 4.23554,-2.183899 -0.85721,-1.103379 0.25157,-1.342135 0.25158,-1.342135 1.85015,0.0251 1.85015,0.02509 -0.28068,-0.485167 -0.2807,-0.485168 1.3853,-1.339256 1.3853,-1.339256 0.40331,0.430849 0.40332,0.430849 1.32341,-1.413753 1.32342,-1.413753 1.00994,0.414004 1.00993,0.414006 0.44144,1.22887 0.44142,1.228869 -1.24078,0.969218 -1.24078,0.969217 -0.90212,-0.369808 -0.90213,-0.369807 0.40293,1.715001 0.40294,1.715001 -1.06243,0.941928 -1.06243,0.941927 -0.77117,-0.509142 -0.77116,-0.509142 1.10275,-0.861396 1.10275,-0.861395 h -1.70145 -1.70146 l 0.11646,0.619861 0.11646,0.619861 -1.47141,1.07921 -1.47142,1.07921 z m 2.05317,-1.504265 v -0.329169 l -0.80671,-0.532607 -0.80671,-0.532606 0.49858,0.861776 0.49856,0.861775 h 0.30814 0.30814 z m 3.49372,-3.029827 v -0.373222 h -0.34937 -0.34938 v 0.373222 0.373222 h 0.34938 0.34937 z m 6.63666,-3.839285 -1.155,-1.883087 1.27695,-1.033902 1.27695,-1.033904 0.59882,-0.02374 0.59882,-0.02374 -0.44013,1.225246 -0.44012,1.225244 1.04062,-0.922592 1.04062,-0.922592 0.89692,0.320684 0.89692,0.320684 -2.09623,1.212886 -2.09624,1.212886 0.87344,0.02989 0.87343,0.02988 v 0.666582 0.666582 l -0.99539,0.408039 -0.99538,0.408038 z m 1.04953,-1.38582 v -0.373221 h -0.34937 -0.34937 v 0.373221 0.373222 h 0.34937 0.34937 z m -33.793116,-12.778231 -1.301486,-1.907886 0.660585,-0.705679 0.660586,-0.705679 1.160946,0.475907 1.160946,0.475909 -0.356757,0.616649 -0.356757,0.616649 0.812053,0.536135 0.81205,0.536134 -0.4646,-1.977443 -0.464587,-1.977443 h 1.003197 1.0032 l 0.36371,-0.933055 0.3637,-0.933054 1.09202,1.448944 1.09201,1.448943 -0.009,0.790387 -0.009,0.790387 -2.42716,1.679498 -2.42715,1.679498 -0.533862,-0.02346 -0.533858,-0.02346 z m 5.144586,-2.897082 v -0.373222 h -0.34938 -0.34937 v 0.373222 0.373222 h 0.34937 0.34938 z m 47.6265,3.17991 -0.8106,-0.865935 v -1.42346 -1.423459 l 0.90863,0.372478 0.90864,0.372478 1.71165,-1.012609 1.71166,-1.012611 0.98173,-0.02645 0.98173,-0.02645 -1.28702,1.519212 -1.28701,1.519212 -0.91751,-0.376121 -0.91753,-0.376119 v 1.425407 1.425407 l -0.58688,0.387477 -0.58689,0.387478 z m 4.77935,-3.926353 v -0.373222 h -0.34937 -0.34937 v 0.373222 0.373221 h 0.34937 0.34937 z m -50.24088,-0.136936 -0.87082,-2.041702 1.09978,-0.85908 1.09979,-0.85908 v -1.238207 -1.238208 l 1.92155,0.490368 1.92155,0.490369 0.88942,0.749098 0.88943,0.749097 -0.39717,-1.105654 -0.39717,-1.105654 1.07103,-0.949543 1.07101,-0.949543 1.04679,0.429112 1.04679,0.429113 -0.8457,-1.446639 -0.84572,-1.446637 0.76067,-0.812595 0.76067,-0.812595 1.52115,2.754149 1.52115,2.754148 -0.436,0.465757 -0.43599,0.465757 h -0.51574 -0.51574 l -1.254,1.3396 -1.25399,1.339599 -0.77839,-0.277174 -0.77839,-0.277174 -1.19123,1.550126 -1.19124,1.550128 -1.49324,-0.972898 -1.49324,-0.972897 0.22493,1.649957 0.22493,1.649955 -0.75303,0.275325 -0.75303,0.275325 z m 9.01494,-5.088169 v -0.373222 h -0.34937 -0.34937 v 0.373222 0.373222 h 0.34937 0.34937 z m 3.74641,-2.985774 -0.4022,-1.119665 0.43282,-1.204909 0.43283,-1.204909 1.71702,0.350637 1.71703,0.350636 -0.31175,-0.538855 -0.31176,-0.538854 1.20633,-1.099367 1.20633,-1.099367 2.96966,-0.150297 2.96967,-0.150296 v 1.17333 1.173331 l -1.05701,0.433303 -1.05702,0.433304 -1.21391,-0.980563 -1.2139,-0.980564 0.87343,1.046343 0.87343,1.046344 v 1.317335 1.317336 l -1.39749,0.798969 -1.39749,0.798969 -0.0827,-0.586095 -0.0827,-0.586096 0.0606,-0.489028 0.0606,-0.489029 -1.17941,-0.483477 -1.17941,-0.483477 0.49669,0.530604 0.49671,0.530604 -0.77824,1.001734 -0.77825,1.001734 h -1.33386 -1.33386 z m 2.5423,-0.746443 V 42.30962 h -0.34938 -0.34937 v 0.373222 0.373221 h 0.34937 0.34938 z m 4.89121,-0.746444 v -0.373222 h -0.34937 -0.34938 v 0.373222 0.373222 h 0.34938 0.34937 z m -1.39749,-2.23933 v -0.373222 h -0.34937 -0.34938 v 0.373222 0.373221 h 0.34938 0.34937 z"
         id="path212" />
      <path
         style="display:inline;fill:#f34f29;stroke-width:0.7222"
         d="m 127.4653,215.41422 -2.93177,-0.748 -2.13413,-2.12966 -2.13413,-2.12967 v -1.56663 -1.56663 l 0.87343,-0.11683 0.87343,-0.11684 2.09623,-0.17501 2.09624,-0.175 1.60045,1.78473 1.60045,1.78473 h 3.41554 3.41553 l 1.09803,-1.17299 1.09803,-1.17298 v -0.66686 -0.66686 l -1.2228,-0.68603 -1.22281,-0.68602 -3.14435,-0.51129 -3.14435,-0.51129 -3.31866,-1.12814 -3.31866,-1.12814 -1.0485,-1.59911 -1.04849,-1.59912 v -2.7179 -2.7179 l 1.76335,-1.88371 1.76334,-1.88372 3.08791,-0.83062 3.08792,-0.83063 h 2.17614 2.17614 l 3.0872,0.83043 3.0872,0.83043 1.76406,1.74648 1.76406,1.74648 v 1.90175 1.90175 h -3.03605 -3.03605 l -1.22887,-1.45058 -1.22887,-1.45057 -1.9024,-0.44636 -1.90238,-0.44636 -1.86826,0.7588 -1.86825,0.75879 v 1.4814 1.4814 l 2.6203,0.76002 2.62029,0.76001 4.04233,0.8212 4.04234,0.82121 1.7459,1.62112 1.7459,1.62114 0.38889,2.61278 0.3889,2.61279 -1.5223,2.0674 -1.5223,2.0674 -2.05424,1.1348 -2.05423,1.1348 -4.34746,0.30881 -4.34746,0.30881 z m 31.68229,0.001 -2.69299,-0.68633 -2.03936,-1.55128 -2.03935,-1.55128 -1.38167,-2.89318 -1.38167,-2.89317 v -3.71336 -3.71336 l 0.74528,-2.10132 0.74529,-2.10131 1.52563,-1.75042 1.52564,-1.75042 2.09623,-1.19881 2.09624,-1.19881 5.58995,-0.0366 5.58996,-0.0365 2.88729,1.7675 2.8873,1.76749 1.51925,2.88767 1.51926,2.88768 0.0768,3.60304 0.0768,3.60303 -1.16434,2.4933 -1.16434,2.4933 v 0.20896 0.20896 l 1.92154,0.23619 1.92155,0.23619 v 2.61255 2.61255 l -9.08368,0.12203 -9.08368,0.12202 -2.69299,-0.68632 z m 9.38481,-6.59152 2.04249,-2.18191 v -4.43542 -4.43541 l -1.37614,-1.86891 -1.37615,-1.86891 -2.08316,-0.44507 -2.08317,-0.44508 -2.15188,0.80136 -2.15188,0.80135 -1.02688,2.12135 -1.02689,2.12107 v 3.05991 3.05991 l 1.0481,2.16516 1.0481,2.16517 1.22282,0.76084 1.22282,0.76084 2.32467,0.0227 2.32467,0.0227 2.04248,-2.18191 z m -126.901535,5.7385 -0.360733,-1.00422 0.193174,-11.91314 0.193174,-11.91313 h 11.529289 11.529288 l 0.223436,1.68074 0.223437,1.68073 -1.046957,1.11843 -1.046957,1.11843 H 56.030658 48.9933 v 2.61255 2.61255 h 6.330883 6.330883 l -0.216867,2.79916 -0.216866,2.79917 -6.079943,0.21514 -6.079944,0.21514 -0.208759,4.26352 -0.208759,4.26352 -3.326165,0.22782 -3.326165,0.22782 z m 28.109341,0.44285 -0.483308,-0.5163 v -12.56513 -12.56513 h 3.493724 3.493724 v 10.05173 10.05174 l 7.511506,0.21186 7.511506,0.21186 v 2.61256 2.61255 l -10.521922,0.20528 -10.521922,0.20528 z m 30.698904,-0.6647 -0.43744,-1.21777 v -3.27978 -3.27978 l -4.611802,-7.6163 -4.6118,-7.61632 -0.369381,-1.0283 -0.369381,-1.0283 3.753072,0.22896 3.753072,0.22895 2.96526,4.84843 2.96526,4.84842 0.53377,0.18314 0.53377,0.18313 3.0138,-5.21817 3.01381,-5.21817 h 3.82354 3.82354 l -0.83265,1.6795 -0.83265,1.67949 -4.24994,6.71799 -4.24995,6.718 -0.35726,4.47866 -0.35726,4.47866 -3.23097,0.22366 -3.23097,0.22367 z m 84.59398,0.6647 -0.48331,-0.5163 v -12.60414 -12.60414 l 3.66841,0.22562 3.66841,0.22562 0.19497,9.89038 0.19497,9.89037 h 7.35872 7.35872 l -0.21687,2.79917 -0.21687,2.79916 -10.52192,0.20528 -10.52192,0.20528 z m -94.204233,-97.11853 -0.958988,-1.30627 1.222803,1.02445 1.222803,1.02445 v 0.28182 0.28183 h -0.263814 -0.263816 z m -3.121947,-4.03416 -0.498572,-0.86177 0.806707,0.53261 0.806706,0.5326 v 0.32917 0.32917 h -0.308134 -0.308135 z m -1.39749,-2.23933 -0.498572,-0.86177 0.806707,0.5326 0.806707,0.53261 v 0.32917 0.32917 h -0.308135 -0.308134 z m -0.981392,-1.75077 v -0.37323 h 0.349372 0.349372 v 0.37323 0.37322 H 85.6774 85.328028 Z m -1.076849,-1.91577 -0.460579,-0.79611 0.333019,-0.35575 0.33302,-0.35576 0.413765,1.15186 0.413763,1.15186 h -0.286204 -0.286205 z m -1.019386,-2.5629 v -0.37322 h 0.349373 0.349372 v 0.37322 0.37323 h -0.349372 -0.349373 z m -0.698744,-1.8661 v -0.99526 l 0.46583,0.49763 0.465829,0.49763 -0.465829,0.49763 -0.46583,0.49762 z m -0.698745,-1.86611 v -0.37322 h 0.349372 0.349373 v 0.37322 0.37322 h -0.349373 -0.349372 z m -0.698745,-2.612555 v -0.995257 l 0.46583,0.497628 0.465829,0.497629 -0.465829,0.49763 -0.46583,0.497625 z m -0.643581,-2.674755 0.05517,-1.430684 0.366994,0.979707 0.366994,0.979707 -0.422158,0.450977 -0.422159,0.450976 z m -0.617689,-3.670014 0.02589,-2.239331 0.322113,1.320483 0.322112,1.320482 -0.348004,0.918848 -0.348004,0.918848 0.02589,-2.23933 z m -0.625576,-7.091214 v -4.105439 l 0.29109,2.05272 0.291091,2.052719 -0.291091,2.05272 -0.29109,2.05272 z m 0.625576,-7.837656 0.02589,-2.239331 0.322113,1.320483 0.322112,1.320482 -0.348004,0.918848 -0.348004,0.918848 0.02589,-2.23933 z m 0.562525,-4.105439 v -0.995258 l 0.46583,0.497628 0.46583,0.49763 -0.46583,0.497629 -0.46583,0.497628 z m 0.698745,-2.239331 v -0.995258 l 0.46583,0.497629 0.465829,0.497629 -0.465829,0.497629 -0.46583,0.497629 z m 0.698745,-2.612552 v -0.373222 h 0.349372 0.349373 v 0.373222 0.373222 h -0.349373 -0.349372 z m 0.698745,-2.239331 v -0.373221 h 0.349372 0.349372 v 0.373221 0.373222 h -0.349372 -0.349372 z m 0.698744,-1.492887 v -0.373221 h 0.349373 0.349372 v 0.373221 0.373222 h -0.349372 -0.349373 z m 0.698745,-1.492887 v -0.373221 h 0.349372 0.349373 v 0.373221 0.373222 H 84.27991 83.930538 Z m 0.698745,-1.492887 v -0.373221 h 0.349372 0.349373 v 0.373221 0.373222 h -0.349373 -0.349372 z m 0.698745,-1.492887 v -0.373221 h 0.349372 0.349372 v 0.373221 0.373222 H 85.6774 85.328028 Z"
         id="path210" />
    </g>
  </g>
  <metadata
     id="metadata226">
    <rdf:RDF>
      <cc:Work
         rdf:about="">
        <dc:title>FlySql</dc:title>
      </cc:Work>
    </rdf:RDF>
  </metadata>
</svg>
