<?xml version="1.0" encoding="UTF-8" standalone="no"?>
<!-- Created with Inkscape (http://www.inkscape.org/) -->

<svg
   version="1.1"
   id="svg315"
   width="64"
   height="64"
   viewBox="0 0 64 64"
   sodipodi:docname="favicon-32x32.svg"
   inkscape:version="1.2 (dc2aedaf03, 2022-05-15)"
   xmlns:inkscape="http://www.inkscape.org/namespaces/inkscape"
   xmlns:sodipodi="http://sodipodi.sourceforge.net/DTD/sodipodi-0.dtd"
   xmlns="http://www.w3.org/2000/svg"
   xmlns:svg="http://www.w3.org/2000/svg">
  <defs
     id="defs319" />
  <sodipodi:namedview
     id="namedview317"
     pagecolor="#ffffff"
     bordercolor="#000000"
     borderopacity="0.25"
     inkscape:showpageshadow="2"
     inkscape:pageopacity="0.0"
     inkscape:pagecheckerboard="0"
     inkscape:deskcolor="#d1d1d1"
     showgrid="false"
     inkscape:zoom="3.6875"
     inkscape:cx="-17.084746"
     inkscape:cy="32"
     inkscape:window-width="2160"
     inkscape:window-height="1346"
     inkscape:window-x="-11"
     inkscape:window-y="-11"
     inkscape:window-maximized="1"
     inkscape:current-layer="g321" />
  <g
     inkscape:groupmode="layer"
     inkscape:label="Image"
     id="g321">
    <g
       id="g325"
       transform="translate(-0.27118608,1.3559322)">
      <path
         style="fill:#fcf9f8;stroke-width:0.616434"
         d="M 13.559323,31.728813 V 11.661017 H 32.949154 52.338986 V 31.728813 51.79661 H 32.949154 13.559323 Z m 23.539494,18.885591 c 1.225219,-0.803605 0.575747,-2.865523 -0.974708,-3.094462 -0.746437,-0.110218 -1.357158,-0.468348 -1.357158,-0.795846 0,-0.327497 0.681674,-0.418378 1.514831,-0.201958 1.656802,0.430371 2.126675,-0.619529 0.556375,-1.243179 -2.650258,-1.052559 -5.358696,0.608589 -3.919192,2.403731 0.39827,0.496666 1.181498,1.022999 1.740507,1.169629 0.559007,0.14663 0.266536,0.170627 -0.649936,0.05333 -1.878093,-0.240379 -2.207175,0.621247 -0.605932,1.586495 1.303741,0.785911 2.617123,0.829367 3.695213,0.122263 z m 8.100306,0.210132 c 0.553141,-0.572481 -0.591288,-4.817199 -1.450852,-5.38125 -2.012726,-1.320764 -5.345726,0.126881 -5.345726,2.321847 0,1.616633 2.333409,3.404358 4.443502,3.404358 1.110877,0 2.169761,-0.15523 2.353076,-0.344955 z m -4.391887,-1.873701 c -0.65022,-0.810861 -0.621858,-1.149517 0.164426,-1.963292 1.016162,-1.051693 2.27834,-0.667767 2.27834,0.693019 0,0.454784 -0.372827,1.147118 -0.828503,1.538519 -0.631356,0.542299 -1.015482,0.478468 -1.614263,-0.268246 z m 9.991043,0.921086 c -0.191736,-0.321082 -0.860581,-0.583786 -1.486324,-0.583786 -0.834061,0 -1.188389,-0.531082 -1.327587,-1.989839 -0.310105,-3.249843 -1.704704,-2.979833 -1.704704,0.33005 0,2.736489 0.06813,2.84188 1.969279,3.046123 2.293966,0.246444 3.036213,0.01278 2.549336,-0.802548 z m -33.603363,0.08695 c 0,-0.320926 0.55614,-0.673681 1.235866,-0.783898 1.669848,-0.270767 1.586354,-1.366179 -0.139724,-1.833135 -1.336143,-0.361467 -1.323271,-0.389689 0.286044,-0.627118 2.485279,-0.366665 2.012939,-1.502856 -0.62477,-1.502856 -2.240049,0 -2.274886,0.03777 -2.458569,2.665254 -0.145221,2.077308 0.02186,2.665255 0.757415,2.665255 0.519056,0 0.943738,-0.262576 0.943738,-0.583502 z m 9.088984,-0.04362 c 0,-0.344915 -0.664398,-0.627119 -1.47644,-0.627119 -1.214527,0 -1.510122,-0.352986 -1.666314,-1.989839 -0.312455,-3.27447 -1.704704,-2.972464 -1.704704,0.369783 v 2.874294 h 2.423729 c 1.333051,0 2.423729,-0.282204 2.423729,-0.627119 z m 4.459428,-1.933313 c 1.28991,-2.894026 0.812302,-4.07195 -0.810894,-1.999908 l -1.094608,1.397287 -0.864512,-1.34755 c -0.51282,-0.799353 -1.160013,-1.158533 -1.590899,-0.88292 -0.533587,0.341305 -0.401818,0.93638 0.496448,2.241986 0.672558,0.977547 1.222834,2.086548 1.222834,2.464447 0,1.598289 1.60001,0.463624 2.641631,-1.873342 z m -6.551213,-14.594334 2.351649,-2.103919 1.839348,1.160897 c 2.213786,1.397221 6.961674,1.540851 9.292108,0.281098 0.899923,-0.486467 4.158416,-3.552691 7.241096,-6.813831 5.170597,-5.469928 5.604873,-6.122721 5.604873,-8.425098 0,-4.699672 -4.175438,-6.323604 -7.905956,-3.074824 -1.256427,1.09418 -2.308396,1.549897 -2.934183,1.271101 -7.969453,-3.550492 -8.925425,-3.237652 -17.487193,5.722646 -7.576583,7.929257 -8.252738,9.521056 -5.329449,12.546557 2.105437,2.179054 4.464109,1.997309 7.327707,-0.564627 z"
         id="path341" />
      <path
         style="fill:#4bc9eb;stroke-width:0.616434"
         d="m 41.625268,28.860947 c 0.55693,-0.715039 1.172264,-2.549361 1.36741,-4.076272 0.283667,-2.219537 0.05504,-3.353393 -1.140222,-5.654783 l -1.495034,-2.878584 2.146414,-1.772546 c 3.956001,-3.266938 8.017353,-1.743725 8.017353,3.006914 0,2.289696 -0.407073,2.91293 -4.95426,7.585008 -2.724843,2.799683 -4.49859,4.505301 -3.941661,3.790263 z"
         id="path339" />
      <path
         style="fill:#fc9b17;stroke-width:0.616434"
         d="m 16.864408,33.952234 c -2.666711,-2.759952 -2.080905,-4.759653 2.94218,-10.043387 l 4.429469,-4.659314 -0.259354,3.710889 c -0.211248,3.022593 -0.01005,4.148194 1.084717,6.06857 l 1.344069,2.357679 -2.33304,2.043098 c -2.84144,2.488314 -5.147127,2.655439 -7.208041,0.522465 z"
         id="path337" />
      <path
         style="fill:#f55e5a;stroke-width:0.616434"
         d="m 34.615468,50.754163 c 0.416579,-0.173971 1.098252,-0.173971 1.514831,0 0.416578,0.17397 0.07574,0.316309 -0.757416,0.316309 -0.833156,0 -1.173993,-0.142339 -0.757415,-0.316309 z m 8.192772,-0.04229 c 1.455628,-0.157211 2.136389,-0.495531 1.875658,-0.932153 -0.247375,-0.414256 -0.128637,-0.505867 0.300163,-0.231587 1.264858,0.809058 0.06907,1.624039 -2.224268,1.515938 L 40.523307,50.95865 Z m 7.352121,-0.0726 c 0.283785,-0.475224 -0.100467,-0.724011 -1.118242,-0.724011 -1.360946,0 -1.550591,-0.262058 -1.550591,-2.142655 0,-1.178461 -0.279486,-2.286109 -0.62108,-2.461441 -0.341595,-0.175332 -0.273427,-0.247667 0.151483,-0.160744 0.42491,0.08692 0.858006,1.053469 0.962437,2.147882 0.139198,1.458757 0.493526,1.989839 1.327587,1.989839 1.395738,0 2.092061,1.003103 1.125496,1.621359 -0.443074,0.28341 -0.547109,0.181951 -0.27709,-0.270226 z m -34.53971,-2.757491 c 0.05913,-2.656214 0.07109,-2.66991 2.331681,-2.66991 2.61307,0 3.161431,1.198193 0.62477,1.36515 l -1.685152,0.110914 1.817797,-0.507055 1.817797,-0.507054 -2.237406,-0.0742 c -2.180688,-0.07232 -2.243636,-0.01049 -2.483164,2.438932 l -0.245758,2.51313 z m 13.69291,1.756931 c 0,-0.497017 0.247241,-1.061813 0.549424,-1.255102 0.302183,-0.19329 0.406716,0.213361 0.232295,0.903667 -0.36999,1.464314 -0.781719,1.649414 -0.781719,0.351435 z m -6.261299,-0.14153 c -0.222176,-0.229943 -0.403955,-1.194138 -0.403955,-2.142655 0,-0.948517 -0.279487,-1.86803 -0.621081,-2.043362 -0.341594,-0.175332 -0.273427,-0.247667 0.151483,-0.160744 0.42491,0.08692 0.856772,1.036327 0.959692,2.109787 0.15085,1.573351 0.503274,2.001705 1.817797,2.209436 l 1.630668,0.257692 -1.565325,0.09396 c -0.860929,0.05168 -1.747105,-0.09417 -1.969279,-0.324117 z m 9.29096,-0.225782 c 0,-0.54518 2.352145,-1.520622 2.728217,-1.131401 0.117238,0.121338 -0.448649,0.543859 -1.257528,0.938936 -0.808879,0.395077 -1.470689,0.481686 -1.470689,0.192465 z m 1.817797,0.403443 c 0,-0.132229 0.545715,-0.388115 1.212701,-0.568634 0.666985,-0.180519 1.059897,-0.07233 0.873138,0.240418 -0.326144,0.546163 -2.085839,0.823059 -2.085839,0.328216 z M 18.406781,48.726372 c 1.382041,-0.457085 1.408599,-0.528541 0.302966,-0.815153 l -1.211864,-0.31415 1.211864,0.06163 c 1.747323,0.08887 1.494531,1.292286 -0.302966,1.442272 l -1.514831,0.126401 z m 20.0436,-1.058293 c 0.02907,-0.730557 0.172655,-0.879157 0.366084,-0.378884 0.175037,0.452701 0.15351,0.993591 -0.04784,1.201977 -0.201346,0.208386 -0.344558,-0.162006 -0.318248,-0.823093 z m 6.059322,0 c 0.02907,-0.730557 0.172655,-0.879157 0.366085,-0.378884 0.175036,0.452701 0.153509,0.993591 -0.04784,1.201977 -0.201346,0.208386 -0.344558,-0.162006 -0.318247,-0.823093 z M 26.00681,46.195875 c -0.547893,-0.917506 0.90823,-1.52299 1.693234,-0.704079 0.537547,0.560767 0.429624,0.626628 -0.455163,0.277769 -0.809467,-0.319161 -1.027444,-0.235672 -0.721655,0.276405 0.24097,0.40353 0.301792,0.733691 0.135161,0.733691 -0.166632,0 -0.459841,-0.262704 -0.651577,-0.583786 z m 4.049739,-0.406261 c 0.575275,-0.621616 1.176381,-0.995224 1.335791,-0.830241 0.15941,0.164984 -0.31127,0.673579 -1.045954,1.130212 -1.276281,0.793254 -1.289193,0.77989 -0.289837,-0.299971 z M 24.466103,18.949669 c 0,-0.130225 0.477172,-0.624081 1.060382,-1.097458 0.961042,-0.780054 0.982474,-0.757873 0.228772,0.236772 -0.791571,1.044622 -1.289154,1.376826 -1.289154,0.860686 z m 8.028602,-5.212466 c 0.58321,-0.157738 1.537553,-0.157738 2.120763,0 0.58321,0.157737 0.106038,0.286795 -1.060381,0.286795 -1.16642,0 -1.643591,-0.129058 -1.060382,-0.286795 z"
         id="path335" />
      <path
         style="fill:#a5699e;stroke-width:0.616434"
         d="m 32.949154,23.88983 c 3.82165,-3.966525 7.084788,-7.211864 7.251419,-7.211864 0.166632,0 -2.823837,3.245339 -6.645486,7.211864 -3.821649,3.966526 -7.084788,7.211865 -7.251419,7.211865 -0.166632,0 2.823837,-3.245339 6.645486,-7.211865 z"
         id="path333" />
      <path
         style="fill:#288be9;stroke-width:0.616434"
         d="m 29.537785,32.706873 c -1.043096,-0.469812 -2.051198,-1.113197 -2.240226,-1.429745 -0.189028,-0.316548 2.740394,-3.758403 6.509828,-7.648568 l 6.853515,-7.073026 1.366186,2.920841 c 1.047476,2.239454 1.274775,3.512475 0.974344,5.456959 -0.990185,6.408787 -7.784301,10.331523 -13.463647,7.773539 z"
         id="path331" />
      <path
         style="fill:#f53a5a;stroke-width:0.616434"
         d="m 25.363978,28.977379 c -1.844941,-2.914189 -1.878217,-6.824609 -0.08502,-9.991454 1.816793,-3.208519 4.569734,-4.816433 8.24631,-4.816433 2.431514,0 6.089141,1.428714 6.089141,2.378494 0,0.255711 -2.970388,3.529644 -6.600862,7.275407 l -6.600862,6.810478 z"
         id="path329" />
      <path
         style="fill:#f34e25;stroke-width:0.616434"
         d="m 16.002323,48.190678 -0.01927,-2.665254 2.272246,0.09396 c 1.827755,0.07558 1.946286,0.145068 0.605932,0.355214 -2.000207,0.313601 -2.243893,2.028479 -0.302966,2.132045 1.220004,0.0651 1.237519,0.105758 0.166591,0.386724 -0.658217,0.172687 -1.535721,0.774909 -1.95001,1.33827 -0.638047,0.867635 -0.756199,0.616663 -0.772522,-1.640961 z m 5.434119,-0.15678 c 0,-2.997924 1.054306,-3.374369 1.324957,-0.473082 0.157672,1.690203 0.49816,2.103041 2.00767,2.434277 1.629461,0.357558 1.550988,0.406572 -0.757415,0.473082 l -2.575212,0.0742 z m 6.665255,1.545733 c 0,-0.529508 -0.440364,-1.658322 -0.978587,-2.508475 -0.55582,-0.87795 -0.699714,-1.545732 -0.333075,-1.545732 0.355032,0 0.909374,0.487982 1.231873,1.084404 0.555751,1.027795 0.646802,1.027795 1.744134,0 1.780746,-1.6679 2.193697,-1.287786 0.800644,0.73698 -0.689219,1.001762 -1.253125,2.130576 -1.253125,2.508475 0,0.3779 -0.272669,0.68709 -0.605932,0.68709 -0.333263,0 -0.605932,-0.433234 -0.605932,-0.962742 z m 4.847457,0.361531 c 0,-0.400666 0.591235,-0.523343 1.448728,-0.300602 0.796799,0.206977 1.632879,0.06794 1.857954,-0.308977 0.24876,-0.416575 -0.319322,-0.836102 -1.448726,-1.069881 -1.280592,-0.265074 -1.857956,-0.749981 -1.857956,-1.560431 0,-1.50961 3.160836,-1.848046 4.525557,-0.484559 0.365921,0.36559 -0.147546,0.43442 -1.363348,0.182758 -2.530345,-0.523764 -2.6254,0.754203 -0.09882,1.328537 2.704759,0.614836 2.165282,2.441205 -0.796186,2.695442 -1.334871,0.114597 -2.267207,-0.08373 -2.267207,-0.482287 z m 6.816738,0.185882 c -0.416578,-0.17397 -0.757415,-1.148497 -0.757415,-2.165614 0,-1.344063 0.372475,-1.99283 1.363347,-2.374642 2.220155,-0.85549 3.745032,0.12853 4.146141,2.675547 0.358157,2.274275 0.353562,2.279912 -1.817796,2.230529 -1.197274,-0.02723 -2.517698,-0.191849 -2.934277,-0.36582 z m 3.181144,-2.093146 c 0,-0.979206 -0.391432,-1.628638 -1.062213,-1.762336 -1.199435,-0.239067 -1.979451,1.262533 -1.428176,2.749363 0.5779,1.55864 2.490389,0.800654 2.490389,-0.987027 z m 3.332628,0 c 0,-1.379661 0.272669,-2.508474 0.605932,-2.508474 0.333263,0 0.605932,0.968967 0.605932,2.15326 0,1.867599 0.221061,2.187919 1.666314,2.414512 1.340354,0.210147 1.221823,0.279633 -0.605932,0.355214 -2.26213,0.09354 -2.272246,0.08279 -2.272246,-2.414512 z"
         id="path327" />
    </g>
  </g>
</svg>
